{
  "accessors": [
    {
      "bufferView": 2,
      "componentType": 5126,
      "count": 312,
      "max": [
        3.2732999324798584,
        4.2442998886108398,
        4.1396999359130859
      ],
      "min": [
        -4.5841999053955078,
        -3.6131999492645264,
        2.2353000640869141
      ],
      "type": "VEC3"
    },
    {
      "bufferView": 2,
      "byteOffset": 3744,
      "componentType": 5126,
      "count": 312,
      "max": [
        0.97739964723587036,
        0.97739964723587036,
        1
      ],
      "min": [
        -0.97739964723587036,
        -0.97739964723587036,
        -0.62783652544021606
      ],
      "type": "VEC3"
    },
    {
      "bufferView": 3,
      "componentType": 5126,
      "count": 312,
      "max": [
        1,
        0.99956274032592773,
        0.97713202238082886,
        1
      ],
      "min": [
        -0.97468537092208862,
        -0.99730658531188965,
        -0.77731490135192871,
        1
      ],
      "type": "VEC4"
    },
    {
      "bufferView": 1,
      "componentType": 5126,
      "count": 312,
      "max": [
        0.95469999313354492,
        0.66390001773834229
      ],
      "min": [
        0.004999999888241291,
        0.004999999888241291
      ],
      "type": "VEC2"
    },
    {
      "bufferView": 0,
      "componentType": 5125,
      "count": 1260,
      "max": [
        311
      ],
      "min": [
        0
      ],
      "type": "SCALAR"
    },
    {
      "bufferView": 2,
      "byteOffset": 7488,
      "componentType": 5126,
      "count": 2537,
      "max": [
        2.8287999629974365,
        4.1276998519897461,
        2.5457000732421875
      ],
      "min": [
        -4.3456997871398926,
        -3.9860999584197998,
        1.3760000467300415
      ],
      "type": "VEC3"
    },
    {
      "bufferView": 2,
      "byteOffset": 37932,
      "componentType": 5126,
      "count": 2537,
      "max": [
        0.99927020072937012,
        0.99936819076538086,
        1
      ],
      "min": [
        -0.99927020072937012,
        -0.99936819076538086,
        -1
      ],
      "type": "VEC3"
    },
    {
      "bufferView": 3,
      "byteOffset": 4992,
      "componentType": 5126,
      "count": 2537,
      "max": [
        0.99938732385635376,
        0.99999880790710449,
        0.7086101770401001,
        1
      ],
      "min": [
        -0.99992620944976807,
        -0.99992692470550537,
        -0.77680152654647827,
        1
      ],
      "type": "VEC4"
    },
    {
      "bufferView": 1,
      "byteOffset": 2496,
      "componentType": 5126,
      "count": 2537,
      "max": [
        0.90930002927780151,
        0.92059999704360962
      ],
      "min": [
        0.004999999888241291,
        0.004999999888241291
      ],
      "type": "VEC2"
    },
    {
      "bufferView": 0,
      "byteOffset": 5040,
      "componentType": 5125,
      "count": 11880,
      "max": [
        2536
      ],
      "min": [
        0
      ],
      "type": "SCALAR"
    },
    {
      "bufferView": 2,
      "byteOffset": 68376,
      "componentType": 5126,
      "count": 24975,
      "max": [
        3.904400110244751,
        4.9938998222351074,
        4.1572999954223633
      ],
      "min": [
        -5.1820998191833496,
        -4.0942997932434082,
        -1.4487999677658081
      ],
      "type": "VEC3"
    },
    {
      "bufferView": 2,
      "byteOffset": 368076,
      "componentType": 5126,
      "count": 24975,
      "max": [
        0.99973756074905396,
        0.99923098087310791,
        1
      ],
      "min": [
        -0.99893617630004883,
        -0.99996650218963623,
        -0.99999833106994629
      ],
      "type": "VEC3"
    },
    {
      "bufferView": 3,
      "byteOffset": 45584,
      "componentType": 5126,
      "count": 24975,
      "max": [
        0.99999827146530151,
        0.99997138977050781,
        0.99995040893554688,
        1
      ],
      "min": [
        -0.99997860193252563,
        -0.99999737739562988,
        -0.99932825565338135,
        -1
      ],
      "type": "VEC4"
    },
    {
      "bufferView": 1,
      "byteOffset": 22792,
      "componentType": 5126,
      "count": 24975,
      "max": [
        0.99500000476837158,
        0.99500000476837158
      ],
      "min": [
        0.004999999888241291,
        0.004999999888241291
      ],
      "type": "VEC2"
    },
    {
      "bufferView": 0,
      "byteOffset": 52560,
      "componentType": 5125,
      "count": 82602,
      "max": [
        24974
      ],
      "min": [
        0
      ],
      "type": "SCALAR"
    },
    {
      "bufferView": 2,
      "byteOffset": 667776,
      "componentType": 5126,
      "count": 65532,
      "max": [
        3.7290000915527344,
        4.5180997848510742,
        3.2019000053405762
      ],
      "min": [
        -5.2551999092102051,
        -3.538100004196167,
        1.2079999446868896
      ],
      "type": "VEC3"
    },
    {
      "bufferView": 2,
      "byteOffset": 1454160,
      "componentType": 5126,
      "count": 65532,
      "max": [
        0.99997138977050781,
        1,
        0.99997687339782715
      ],
      "min": [
        -0.99999153614044189,
        -1,
        -1
      ],
      "type": "VEC3"
    },
    {
      "bufferView": 3,
      "byteOffset": 445184,
      "componentType": 5126,
      "count": 65532,
      "max": [
        0.99999147653579712,
        1,
        0.99989694356918335,
        1
      ],
      "min": [
        -0.99999898672103882,
        -0.99998193979263306,
        -0.99974650144577026,
        -1
      ],
      "type": "VEC4"
    },
    {
      "bufferView": 1,
      "byteOffset": 222592,
      "componentType": 5126,
      "count": 65532,
      "max": [
        0.99500000476837158,
        0.99489998817443848
      ],
      "min": [
        0.004999999888241291,
        0.004999999888241291
      ],
      "type": "VEC2"
    },
    {
      "bufferView": 0,
      "byteOffset": 382968,
      "componentType": 5125,
      "count": 287436,
      "max": [
        65531
      ],
      "min": [
        0
      ],
      "type": "SCALAR"
    },
    {
      "bufferView": 2,
      "byteOffset": 2240544,
      "componentType": 5126,
      "count": 8184,
      "max": [
        3.6166000366210938,
        0.77079999446868896,
        3.523900032043457
      ],
      "min": [
        -1.3273999691009521,
        -3.9704000949859619,
        1.1158000230789185
      ],
      "type": "VEC3"
    },
    {
      "bufferView": 2,
      "byteOffset": 2338752,
      "componentType": 5126,
      "count": 8184,
      "max": [
        0.99990534782409668,
        0.99762105941772461,
        0.99970847368240356
      ],
      "min": [
        -0.99512159824371338,
        -0.99711591005325317,
        -0.99995875358581543
      ],
      "type": "VEC3"
    },
    {
      "bufferView": 3,
      "byteOffset": 1493696,
      "componentType": 5126,
      "count": 8184,
      "max": [
        0.99902838468551636,
        0.98991316556930542,
        0.96657037734985352,
        1
      ],
      "min": [
        -0.99966675043106079,
        -0.99992132186889648,
        -0.99704140424728394,
        -1
      ],
      "type": "VEC4"
    },
    {
      "bufferView": 1,
      "byteOffset": 746848,
      "componentType": 5126,
      "count": 8184,
      "max": [
        0.99299997091293335,
        0.892799973487854
      ],
      "min": [
        0.05820000171661377,
        0.0063000000081956387
      ],
      "type": "VEC2"
    },
    {
      "bufferView": 0,
      "byteOffset": 1532712,
      "componentType": 5125,
      "count": 37008,
      "max": [
        8183
      ],
      "min": [
        0
      ],
      "type": "SCALAR"
    },
    {
      "bufferView": 2,
      "byteOffset": 2436960,
      "componentType": 5126,
      "count": 1466,
      "max": [
        3.5176999568939209,
        4.5247998237609863,
        1.5490000247955322
      ],
      "min": [
        -4.5932002067565918,
        -3.953700065612793,
        -2.3324999809265137
      ],
      "type": "VEC3"
    },
    {
      "bufferView": 2,
      "byteOffset": 2454552,
      "componentType": 5126,
      "count": 1466,
      "max": [
        0.9993746280670166,
        0.99964886903762817,
        1
      ],
      "min": [
        -0.99956172704696655,
        -0.99765169620513916,
        -1
      ],
      "type": "VEC3"
    },
    {
      "bufferView": 3,
      "byteOffset": 1624640,
      "componentType": 5126,
      "count": 1466,
      "max": [
        0.99960702657699585,
        0.99674415588378906,
        0.64588117599487305,
        1
      ],
      "min": [
        -0.99965864419937134,
        -0.99995511770248413,
        -0.86728674173355103,
        1
      ],
      "type": "VEC4"
    },
    {
      "bufferView": 1,
      "byteOffset": 812320,
      "componentType": 5126,
      "count": 1466,
      "max": [
        0.98919999599456787,
        0.99379998445510864
      ],
      "min": [
        0.004999999888241291,
        0.004999999888241291
      ],
      "type": "VEC2"
    },
    {
      "bufferView": 0,
      "byteOffset": 1680744,
      "componentType": 5125,
      "count": 6528,
      "max": [
        1465
      ],
      "min": [
        0
      ],
      "type": "SCALAR"
    },
    {
      "bufferView": 2,
      "byteOffset": 2472144,
      "componentType": 5126,
      "count": 2546,
      "max": [
        2.4061999320983887,
        4.1659002304077148,
        0.075800001621246338
      ],
      "min": [
        -4.7136001586914062,
        -3.5589001178741455,
        -0.73470002412796021
      ],
      "type": "VEC3"
    },
    {
      "bufferView": 2,
      "byteOffset": 2502696,
      "componentType": 5126,
      "count": 2546,
      "max": [
        1,
        1,
        1
      ],
      "min": [
        -1,
        -1,
        -1
      ],
      "type": "VEC3"
    },
    {
      "bufferView": 3,
      "byteOffset": 1648096,
      "componentType": 5126,
      "count": 2546,
      "max": [
        0.99977248907089233,
        0.9997788667678833,
        0.78559690713882446,
        1
      ],
      "min": [
        -0.99827975034713745,
        -0.9997258186340332,
        -0.99578559398651123,
        1
      ],
      "type": "VEC4"
    },
    {
      "bufferView": 1,
      "byteOffset": 824048,
      "componentType": 5126,
      "count": 2546,
      "max": [
        0.99500000476837158,
        0.98570001125335693
      ],
      "min": [
        0.004999999888241291,
        0.004999999888241291
      ],
      "type": "VEC2"
    },
    {
      "bufferView": 0,
      "byteOffset": 1706856,
      "componentType": 5125,
      "count": 11880,
      "max": [
        2545
      ],
      "min": [
        0
      ],
      "type": "SCALAR"
    },
    {
      "bufferView": 2,
      "byteOffset": 2533248,
      "componentType": 5126,
      "count": 5939,
      "max": [
        3.9999001026153564,
        4.712399959564209,
        1.6105999946594238
      ],
      "min": [
        -5.1451997756958008,
        -3.880000114440918,
        -1.6940000057220459
      ],
      "type": "VEC3"
    },
    {
      "bufferView": 2,
      "byteOffset": 2604516,
      "componentType": 5126,
      "count": 5939,
      "max": [
        0.956459641456604,
        0.99073153734207153,
        1
      ],
      "min": [
        -0.90912610292434692,
        -0.96678036451339722,
        -0.68119561672210693
      ],
      "type": "VEC3"
    },
    {
      "bufferView": 3,
      "byteOffset": 1688832,
      "componentType": 5126,
      "count": 5939,
      "max": [
        0.9998011589050293,
        0.99933332204818726,
        0.97072046995162964,
        1
      ],
      "min": [
        -0.99998456239700317,
        -0.99966949224472046,
        -0.97151416540145874,
        -1
      ],
      "type": "VEC4"
    },
    {
      "bufferView": 1,
      "byteOffset": 844416,
      "componentType": 5126,
      "count": 5939,
      "max": [
        0.9506000280380249,
        0.99040001630783081
      ],
      "min": [
        0.004999999888241291,
        0.004999999888241291
      ],
      "type": "VEC2"
    },
    {
      "bufferView": 0,
      "byteOffset": 1754376,
      "componentType": 5125,
      "count": 27750,
      "max": [
        5938
      ],
      "min": [
        0
      ],
      "type": "SCALAR"
    }
  ],
  "asset": {
    "extras": {
      "author": "raxtrox (https://sketchfab.com/raxtrox)",
      "license": "CC-BY-4.0 (http://creativecommons.org/licenses/by/4.0/)",
      "source": "https://sketchfab.com/models/fc9d4b562d1b4469a3d74478e77ea906",
      "title": "Hamburguer La Granja"
    },
    "generator": "Sketchfab-3.20.6",
    "version": "2.0"
  },
  "bufferViews": [
    {
      "buffer": 0,
      "byteLength": 1865376,
      "byteOffset": 0,
      "name": "floatBufferViews",
      "target": 34963
    },
    {
      "buffer": 0,
      "byteLength": 891928,
      "byteOffset": 1865376,
      "byteStride": 8,
      "name": "floatBufferViews",
      "target": 34962
    },
    {
      "buffer": 0,
      "byteLength": 2675784,
      "byteOffset": 2757304,
      "byteStride": 12,
      "name": "floatBufferViews",
      "target": 34962
    },
    {
      "buffer": 0,
      "byteLength": 1783856,
      "byteOffset": 5433088,
      "byteStride": 16,
      "name": "floatBufferViews",
      "target": 34962
    }
  ],
  "buffers": [
    {
      "byteLength": 7216944,
      "uri": "scene.bin"
    }
  ],
  "images": [
    {
      "uri": "textures/Object002_mtl_emissive.jpeg"
    },
    {
      "uri": "textures/Object002_mtl_baseColor.jpeg"
    },
    {
      "uri": "textures/Object001_mtl_emissive.jpeg"
    },
    {
      "uri": "textures/Object001_mtl_baseColor.jpeg"
    }
  ],
  "materials": [
    {
      "doubleSided": true,
      "emissiveFactor": [
        0,
        0,
        0
      ],
      "emissiveTexture": {
        "index": 2,
        "texCoord": 0
      },
      "name": "Object001_mtl",
      "pbrMetallicRoughness": {
        "baseColorFactor": [
          1,
          1,
          1,
          1
        ],
        "baseColorTexture": {
          "index": 3,
          "texCoord": 0
        },
        "metallicFactor": 0,
        "roughnessFactor": 0.59999999999999998
      }
    },
    {
      "doubleSided": true,
      "emissiveFactor": [
        0,
        0,
        0
      ],
      "emissiveTexture": {
        "index": 0,
        "texCoord": 0
      },
      "name": "Object002_mtl",
      "pbrMetallicRoughness": {
        "baseColorFactor": [
          1,
          1,
          1,
          1
        ],
        "baseColorTexture": {
          "index": 1,
          "texCoord": 0
        },
        "metallicFactor": 0,
        "roughnessFactor": 0.59999999999999998
      }
    }
  ],
  "meshes": [
    {
      "primitives": [
        {
          "attributes": {
            "NORMAL": 1,
            "POSITION": 0,
            "TANGENT": 2,
            "TEXCOORD_0": 3
          },
          "indices": 4,
          "material": 0,
          "mode": 4
        }
      ]
    },
    {
      "primitives": [
        {
          "attributes": {
            "NORMAL": 6,
            "POSITION": 5,
            "TANGENT": 7,
            "TEXCOORD_0": 8
          },
          "indices": 9,
          "material": 0,
          "mode": 4
        }
      ]
    },
    {
      "primitives": [
        {
          "attributes": {
            "NORMAL": 11,
            "POSITION": 10,
            "TANGENT": 12,
            "TEXCOORD_0": 13
          },
          "indices": 14,
          "material": 0,
          "mode": 4
        }
      ]
    },
    {
      "primitives": [
        {
          "attributes": {
            "NORMAL": 16,
            "POSITION": 15,
            "TANGENT": 17,
            "TEXCOORD_0": 18
          },
          "indices": 19,
          "material": 0,
          "mode": 4
        }
      ]
    },
    {
      "primitives": [
        {
          "attributes": {
            "NORMAL": 21,
            "POSITION": 20,
            "TANGENT": 22,
            "TEXCOORD_0": 23
          },
          "indices": 24,
          "material": 0,
          "mode": 4
        }
      ]
    },
    {
      "primitives": [
        {
          "attributes": {
            "NORMAL": 26,
            "POSITION": 25,
            "TANGENT": 27,
            "TEXCOORD_0": 28
          },
          "indices": 29,
          "material": 1,
          "mode": 4
        }
      ]
    },
    {
      "primitives": [
        {
          "attributes": {
            "NORMAL": 31,
            "POSITION": 30,
            "TANGENT": 32,
            "TEXCOORD_0": 33
          },
          "indices": 34,
          "material": 1,
          "mode": 4
        }
      ]
    },
    {
      "primitives": [
        {
          "attributes": {
            "NORMAL": 36,
            "POSITION": 35,
            "TANGENT": 37,
            "TEXCOORD_0": 38
          },
          "indices": 39,
          "material": 1,
          "mode": 4
        }
      ]
    }
  ],
  "nodes": [
    {
      "children": [
        1
      ],
      "name": "RootNode (gltf orientation matrix)",
      "rotation": [
        -0.70710678118654746,
        -0,
        -0,
        0.70710678118654757
      ]
    },
    {
      "children": [
        2
      ],
      "name": "RootNode (model correction matrix)"
    },
    {
      "children": [
        3,
        4,
        5,
        6,
        7,
        8,
        9,
        10
      ],
      "name": "Hamburguer La Granja.obj.cleaner.materialmerger.gles"
    },
    {
      "mesh": 0,
      "name": ""
    },
    {
      "mesh": 1,
      "name": ""
    },
    {
      "mesh": 2,
      "name": ""
    },
    {
      "mesh": 3,
      "name": ""
    },
    {
      "mesh": 4,
      "name": ""
    },
    {
      "mesh": 5,
      "name": ""
    },
    {
      "mesh": 6,
      "name": ""
    },
    {
      "mesh": 7,
      "name": ""
    }
  ],
  "samplers": [
    {
      "magFilter": 9729,
      "minFilter": 9987,
      "wrapS": 10497,
      "wrapT": 10497
    }
  ],
  "scene": 0,
  "scenes": [
    {
      "name": "OSG_Scene",
      "nodes": [
        0
      ]
    }
  ],
  "textures": [
    {
      "sampler": 0,
      "source": 0
    },
    {
      "sampler": 0,
      "source": 1
    },
    {
      "sampler": 0,
      "source": 2
    },
    {
      "sampler": 0,
      "source": 3
    }
  ]
}

